<svg xmlns="http://www.w3.org/2000/svg" viewBox="0 0 1200 720" role="img" aria-label="익명화 권역 지도 배경">
  <rect width="1200" height="720" fill="#eef4f8"/>
  <path d="M-40 470 C130 420 210 530 360 478 C520 420 560 300 720 338 C880 376 925 485 1260 404 L1260 760 L-40 760 Z" fill="#dbeafe"/>
  <path d="M-20 484 C130 438 220 540 360 494 C526 440 570 322 714 356 C850 388 930 500 1230 426" fill="none" stroke="#93c5fd" stroke-width="18" stroke-linecap="round" opacity=".8"/>
  <g fill="#dcfce7" opacity=".86">
    <path d="M64 58 L250 38 L335 154 L266 246 L106 218 Z"/>
    <path d="M805 32 L1058 74 L1116 218 L964 306 L780 226 Z"/>
    <path d="M78 548 L265 518 L350 654 L232 724 L50 688 Z"/>
    <path d="M910 522 L1156 500 L1232 642 L1086 744 L892 670 Z"/>
  </g>
  <g stroke="#cbd5e1" stroke-width="8" stroke-linecap="round" opacity=".95">
    <path d="M18 330 C210 300 342 282 486 238 C638 192 782 150 1185 142"/>
    <path d="M64 650 C190 552 328 494 470 438 C670 358 776 250 1168 222"/>
    <path d="M122 38 C176 184 238 330 312 684"/>
    <path d="M420 22 C456 170 474 370 456 704"/>
    <path d="M708 36 C668 198 652 438 686 704"/>
    <path d="M990 18 C916 190 910 438 980 700"/>
  </g>
  <g stroke="#e2e8f0" stroke-width="4" stroke-linecap="round">
    <path d="M0 210 C170 218 306 202 450 166 C644 118 826 102 1200 86"/>
    <path d="M0 590 C146 568 280 604 414 584 C620 552 778 466 1200 454"/>
    <path d="M250 0 C286 120 310 300 290 720"/>
    <path d="M570 0 C610 182 584 362 558 720"/>
    <path d="M842 0 C808 176 808 420 838 720"/>
    <path d="M1104 0 C1048 180 1056 430 1130 720"/>
  </g>
  <g fill="#ffffff" stroke="#cbd5e1" stroke-width="2" opacity=".92">
    <rect x="362" y="90" width="92" height="52" rx="8"/>
    <rect x="500" y="128" width="116" height="68" rx="8"/>
    <rect x="662" y="92" width="92" height="58" rx="8"/>
    <rect x="262" y="282" width="120" height="76" rx="8"/>
    <rect x="460" y="286" width="96" height="58" rx="8"/>
    <rect x="792" y="332" width="138" height="84" rx="8"/>
    <rect x="160" y="424" width="116" height="70" rx="8"/>
    <rect x="560" y="520" width="132" height="80" rx="8"/>
    <rect x="744" y="548" width="104" height="66" rx="8"/>
  </g>
  <g fill="#94a3b8" opacity=".22">
    <circle cx="180" cy="124" r="18"/>
    <circle cx="1040" cy="172" r="20"/>
    <circle cx="628" cy="276" r="16"/>
    <circle cx="364" cy="604" r="22"/>
    <circle cx="1030" cy="600" r="18"/>
  </g>
</svg>
